<?xml version="1.0" encoding="UTF-8"?>
<svg width="128" height="128" viewBox="0 0 128 128" fill="none" xmlns="http://www.w3.org/2000/svg">
  <!-- Background circle -->
  <circle cx="64" cy="64" r="62" fill="#2D1810" stroke="#f89422" stroke-width="2"/>
  
  <!-- Beaver body -->
  <ellipse cx="64" cy="70" rx="45" ry="35" fill="#8B4513"/>
  
  <!-- Beaver head -->
  <ellipse cx="64" cy="48" rx="32" ry="28" fill="#A0522D"/>
  
  <!-- Ears -->
  <ellipse cx="48" cy="35" rx="8" ry="12" fill="#8B4513"/>
  <ellipse cx="80" cy="35" rx="8" ry="12" fill="#8B4513"/>
  <ellipse cx="48" cy="35" rx="5" ry="8" fill="#654321"/>
  <ellipse cx="80" cy="35" rx="5" ry="8" fill="#654321"/>
  
  <!-- Eyes -->
  <ellipse cx="55" cy="45" rx="4" ry="6" fill="#000"/>
  <ellipse cx="73" cy="45" rx="4" ry="6" fill="#000"/>
  <ellipse cx="55" cy="43" rx="2" ry="3" fill="#fff"/>
  <ellipse cx="73" cy="43" rx="2" ry="3" fill="#fff"/>
  
  <!-- Nose -->
  <ellipse cx="64" cy="55" rx="3" ry="2" fill="#000"/>
  
  <!-- Mouth -->
  <path d="M64 58 Q60 62 56 60" stroke="#000" stroke-width="2" fill="none"/>
  <path d="M64 58 Q68 62 72 60" stroke="#000" stroke-width="2" fill="none"/>
  
  <!-- Front teeth -->
  <rect x="60" y="58" width="3" height="8" fill="#fff" rx="1"/>
  <rect x="65" y="58" width="3" height="8" fill="#fff" rx="1"/>
  
  <!-- Arms -->
  <ellipse cx="35" cy="65" rx="12" ry="8" fill="#8B4513"/>
  <ellipse cx="93" cy="65" rx="12" ry="8" fill="#8B4513"/>
  
  <!-- Paws -->
  <ellipse cx="30" cy="70" rx="8" ry="6" fill="#654321"/>
  <ellipse cx="98" cy="70" rx="8" ry="6" fill="#654321"/>
  
  <!-- Tail -->
  <ellipse cx="64" cy="95" rx="25" ry="12" fill="#654321"/>
  <path d="M45 95 Q64 88 83 95" stroke="#8B4513" stroke-width="2" fill="none"/>
  <path d="M50 98 Q64 92 78 98" stroke="#8B4513" stroke-width="1" fill="none"/>
  
  <!-- Chest marking -->
  <ellipse cx="64" cy="75" rx="15" ry="10" fill="#D2691E"/>
  
  <!-- Whiskers -->
  <path d="M40 50 L25 48" stroke="#000" stroke-width="1"/>
  <path d="M40 55 L25 55" stroke="#000" stroke-width="1"/>
  <path d="M88 50 L103 48" stroke="#000" stroke-width="1"/>
  <path d="M88 55 L103 55" stroke="#000" stroke-width="1"/>
</svg>